<svg id="Layer_1" data-name="Layer 1" xmlns="http://www.w3.org/2000/svg" viewBox="0 0 593.02 357.18"><defs><style>.cls-1{fill:#1a1a1a;}</style></defs><title>Cat only</title><path class="cls-1" d="M253.68,267.11c-.46,3.61-2.05,7.09-1.47,10.8.8,5.1-1.8,6.87-6.38,6.8-1.83,0-3.66-.24-5.48-.28-12.5-.25-24.29-4.29-36.39-6.67-3.68-1.3-3.68-1.3-5.53-1.89h0l-7.23-1.75c-14-6.38-24.87-14.5-39.62-18.44-4.87-1.3-11-2.6-16.27.72a4.57,4.57,0,0,0-1.34,6.4l.89,1.25c2,1.48,3.61,1.26,5.74,2,7.38,2.41,14.55,7.5,21.68,10.7,10.15,4.54,15.75,12.4,26.46,15.68,17.18,5.19,34.59,9.2,52.61,9.94l1.26.05,16.78.21c3.28,1.37,6.73.83,10.13.91,17.7.85,35.46,3.21,52.74-3.36,7.59-2.88,10.55-.89,18.06-4.25l2.79-.66L345.8,294l1.16-1.22h0c2.53-5.52,7.31-5.3,12.28-5a72,72,0,0,0,11.47,0c6.17-.59,8-5.64,4.17-11-1.29-1.09-1.51-3.07-4-3.53l.56.14-.56-.14a2.42,2.42,0,0,1-1.14-.53q0-32.16.05-64.33a2.19,2.19,0,0,1,.27,0c1.8-4.91,3.23-10,5.48-14.68,5.91-12.34,9.47-25.39,12.35-38.64,2.54-11.63,2.41-23.31-4.1-33.6-3.48-5.5-4.7-11-5-17.15a58.55,58.55,0,0,0-7.42-25.42c-5.25-9.61-13.55-14.6-23.22-18.21q-7.65-7.74-15.3-15.48c-1.26-1.27-2.31-3-4.47-2.6-2.65.53,3.19,10-1.78,4.58-3.58-3.47-5.84-4-5-1.21l4.23,11.57c.53,4.66-1.39,7.05-5.92,9-7.75,3.36-13.71,9.15-14.59,18.12A18.26,18.26,0,0,1,302,93.48c-1.63,2.44-4.28,5-2.66,8.24,2.45,4.85,5.33,9.54,10.46,12.18,3.4,2.23,6.81,1.78,10.24.06,2-.22,4-.58,6-.61,1.61,0,3,.2,3.43,2.49,1.32,7.24-4.28,17.68-11.25,20.18-9.8,3.5-18.73,8.84-25.38,16.55-18.95,21.94-33.47,46.17-35.34,76.21-.31,5-1.71,9.94-2.6,14.91M256.89,300c-.16-.28,0-.2,0,0Z"/></svg>