<?xml version="1.0" encoding="UTF-8"?>
<svg width="257px" height="263px" viewBox="0 0 257 263" version="1.1" xmlns="http://www.w3.org/2000/svg" xmlns:xlink="http://www.w3.org/1999/xlink">
    <!-- Generator: Sketch 59.1 (86144) - https://sketch.com -->
    <title>Cat only-03</title>
    <desc>Created with Sketch.</desc>
    <g id="Page-1" stroke="none" stroke-width="1" fill="none" fill-rule="evenodd">
        <g id="Cat-only-03" fill="#1A1A1A" fill-rule="nonzero">
            <path d="M120.68,225.11 C120.22,228.72 118.63,232.2 119.21,235.91 C120.01,241.01 117.41,242.78 112.83,242.71 C111,242.71 109.17,242.47 107.35,242.43 C94.85,242.18 83.06,238.14 70.96,235.76 C67.28,234.46 67.28,234.46 65.43,233.87 L65.43,233.87 L58.2,232.12 C44.2,225.74 33.33,217.62 18.58,213.68 C13.71,212.38 7.58,211.08 2.31,214.4 C1.27198593,215.061246 0.544557059,216.113215 0.292340056,217.317834 C0.0401230527,218.522452 0.284440442,219.777881 0.97,220.8 L1.86,222.05 C3.86,223.53 5.47,223.31 7.6,224.05 C14.98,226.46 22.15,231.55 29.28,234.75 C39.43,239.29 45.03,247.15 55.74,250.43 C72.92,255.62 90.33,259.63 108.35,260.37 L109.61,260.42 L126.39,260.63 C129.67,262 133.12,261.46 136.52,261.54 C154.22,262.39 171.98,264.75 189.26,258.18 C196.85,255.3 199.81,257.29 207.32,253.93 L210.11,253.27 L212.8,252 L213.96,250.78 L213.96,250.78 C216.49,245.26 221.27,245.48 226.24,245.78 C230.05725,246.085024 233.89275,246.085024 237.71,245.78 C243.88,245.19 245.71,240.14 241.88,234.78 C240.59,233.69 240.37,231.71 237.88,231.25 L238.44,231.39 L237.88,231.25 C237.459945,231.176846 237.066675,230.994009 236.74,230.72 C236.74,209.28 236.756667,187.836667 236.79,166.39 C236.879914,166.384447 236.970086,166.384447 237.06,166.39 C238.86,161.48 240.29,156.39 242.54,151.71 C248.45,139.37 252.01,126.32 254.89,113.07 C257.43,101.44 257.3,89.76 250.79,79.47 C247.31,73.97 246.09,68.47 245.79,62.32 C245.290413,53.3912018 242.752167,44.6954881 238.37,36.9 C233.12,27.29 224.82,22.3 215.15,18.69 C210.05,13.53 204.95,8.37 199.85,3.21 C198.59,1.94 197.54,0.21 195.38,0.61 C192.73,1.14 198.57,10.61 193.6,5.19 C190.02,1.72 187.76,1.19 188.6,3.98 L192.83,15.55 C193.36,20.21 191.44,22.6 186.91,24.55 C179.16,27.91 173.2,33.7 172.32,42.67 C172.002442,45.8463835 170.857725,48.8840198 169,51.48 C167.37,53.92 164.72,56.48 166.34,59.72 C168.79,64.57 171.67,69.26 176.8,71.9 C180.2,74.13 183.61,73.68 187.04,71.96 C189.04,71.74 191.04,71.38 193.04,71.35 C194.65,71.35 196.04,71.55 196.47,73.84 C197.79,81.08 192.19,91.52 185.22,94.02 C175.42,97.52 166.49,102.86 159.84,110.57 C140.89,132.51 126.37,156.74 124.5,186.78 C124.19,191.78 122.79,196.72 121.9,201.69" id="Shape"></path>
        </g>
    </g>
</svg>