<?xml version="1.0" encoding="UTF-8"?>
<svg width="382px" height="471px" viewBox="0 0 382 471" version="1.1" xmlns="http://www.w3.org/2000/svg" xmlns:xlink="http://www.w3.org/1999/xlink">
    <!-- Generator: Sketch 63.1 (92452) - https://sketch.com -->
    <title>Cat logo_Kenta-01</title>
    <desc>Created with Sketch.</desc>
    <g id="Page-1" stroke="none" stroke-width="1" fill="none" fill-rule="evenodd">
        <g id="Cat-logo_Kenta-01">
            <line x1="326.45" y1="39.28" x2="327.64" y2="39.28" id="Path" stroke="#231F20"></line>
            <path d="M280.16,119.5 C245.55918,119.311978 213.243297,136.753133 194.41,165.78 L187.57,180.16 L183.92,187.81 L171.92,212.92 C159.794848,188.070226 160.281722,158.920978 173.23,134.49 L172.93,134.34 C183.281824,115.626053 184.975604,93.3331275 177.57,73.27 L188.52,13.59 L190.8,1.19 L139.8,31.61 C117.629131,20.7166841 91.6608688,20.7166841 69.49,31.61 L17.92,0.88 L31.42,74 C23.7079971,95.5907305 26.5111615,119.543364 39,138.77 C49.5385814,161.559181 49.6298502,187.808084 39.25,210.67 C35.2795976,216.211377 31.8092924,222.094498 28.88,228.25 C20.3342677,246.469518 15.9613649,266.366226 16.08,286.49 C16.0461964,300.383724 18.0956426,314.204003 22.16,327.49 C20.8514074,326.829825 19.4056868,326.487237 17.94,326.49 C8.19,326.49 0.28,342.72 0.28,362.73 C0.28,374.85 8.68,399.91 17.47,417.79 C28.18,448.39 62.11,470.79 102.32,470.79 C102.74,470.79 103.15,470.79 103.57,470.79 C103.99,470.79 104.3,470.79 104.67,470.79 C113.62427,470.79 122.527537,469.442231 131.08,466.79 C150.48,461.23 166.82,450.23 177.46,435.97 C189.22,423.97 209.05,379.97 209.05,362.77 C209.05,342.77 201.15,326.53 191.39,326.53 C189.927385,326.52617 188.484665,326.868859 187.18,327.53 L203,280.83 L227.93,207.28 L231.84,195.73 L227.94,207.24 C228.770797,203.26002 230.080322,199.395242 231.84,195.73 C240.857711,177.26959 259.655144,165.608652 280.2,165.73 C309.66,165.73 333.53,188.94 333.53,217.56 C333.502875,231.931371 327.413505,245.624282 316.76,255.27 L263.13,314.27 L256.52,321.54 L227.52,353.41 C216.859001,365.90599 210.986172,381.784247 210.95,398.21 C210.95,437.21 243.95,469.06 285.23,470.65 L291.72,470.65 C308.386083,470.084529 324.462963,464.345782 337.72,454.23 C340.126265,452.760533 342.274858,450.90585 344.08,448.74 C347.827055,444.29325 349.881426,438.664981 349.88,432.85 C349.88,418.9 338.23,407.58 323.88,407.58 C316.163194,407.548777 308.823257,410.913372 303.81,416.78 L304.87,415.61 C298.917944,421.812763 290.763317,425.423071 282.17,425.66 C266.57,425.66 253.92,413.37 253.92,398.21 C253.918333,391.765614 256.236275,385.535924 260.45,380.66 L262.67,378.37 L260.51,380.59 C261.217864,379.767238 261.97598,378.989083 262.78,378.26 L262.67,378.37 L262.78,378.25 L280.29,360.25 L314,325.62 L351.31,287.25 L355.68,282.74 C372.059013,265.004387 381.159424,241.751747 381.17,217.61 C381.14,163.42 335.93,119.5 280.16,119.5 Z" id="Path" fill="#231F20" fill-rule="nonzero"></path>
        </g>
    </g>
</svg>